<svg xmlns="http://www.w3.org/2000/svg" version="1.1" xmlns:xlink="http://www.w3.org/1999/xlink" xmlns:svgjs="http://svgjs.dev/svgjs" width="2000" height="424" viewBox="0 0 2000 424"><g transform="matrix(1,0,0,1,-1.2120163730908189,-0.7639460372828069)"><svg viewBox="0 0 396 84" data-background-color="#ffffff" preserveAspectRatio="xMidYMid meet" height="424" width="2000" xmlns="http://www.w3.org/2000/svg" xmlns:xlink="http://www.w3.org/1999/xlink"><g id="tight-bounds" transform="matrix(1,0,0,1,0.2399792418719926,0.15134779983904423)"><svg viewBox="0 0 395.52 83.69726288406584" height="83.69726288406584" width="395.52"><g><svg viewBox="0 0 515.3692342788771 109.05894590361775" height="83.69726288406584" width="395.52"><g transform="matrix(1,0,0,1,0,12.554018821340485)"><svg viewBox="0 0 395.52 83.95090826093679" height="83.95090826093679" width="395.52"><g id="textblocktransform"><svg viewBox="0 0 395.52 83.95090826093679" height="83.95090826093679" width="395.52" id="textblock"><g><svg viewBox="0 0 395.52 45.706841759684835" height="45.706841759684835" width="395.52"><g transform="matrix(1,0,0,1,0,0)"><svg width="395.52" viewBox="3.55 -34.55 304.58 35.199999999999996" height="45.706841759684835" data-palette-color="#7f3187"><path d="M3.55 0L5.35-34.1 10.7-34.1 18.4-13.8Q19.05-12.05 19.6-10.58 20.15-9.1 20.55-7.95L20.55-7.95Q21.05-6.65 21.4-5.55L21.4-5.55 21.5-5.55Q21.8-6.65 22.25-7.95L22.25-7.95Q22.65-9.1 23.15-10.58 23.65-12.05 24.35-13.8L24.35-13.8 32.2-34.1 37.55-34.1 39.3 0 35.05 0 34.2-18.75Q34.1-21.2 34.05-22.9 34-24.6 34-25.7L34-25.7 34-27.8 33.9-27.8Q33.6-27.05 33.15-25.75L33.15-25.75Q32.75-24.65 32.13-22.93 31.5-21.2 30.6-18.75L30.6-18.75 23.55 0 19.3 0 12.2-18.75Q11.25-21.15 10.65-22.88 10.05-24.6 9.65-25.7L9.65-25.7Q9.2-27 8.95-27.8L8.95-27.8 8.85-27.8Q8.9-27 8.95-25.7L8.95-25.7Q9-23.6 8.8-18.75L8.8-18.75 7.8 0 3.55 0ZM71.4-33L70.5-29.3Q69.25-29.7 67.85-30.03 66.45-30.35 64.77-30.58 63.1-30.8 61.25-30.8L61.25-30.8Q58.25-30.8 56.15-29.5 54.05-28.2 52.72-26.18 51.4-24.15 50.8-21.65 50.2-19.15 50.2-16.7L50.2-16.7Q50.2-13.6 51.07-11.08 51.95-8.55 53.47-6.78 55-5 57.02-4.05 59.05-3.1 61.3-3.1L61.3-3.1Q63.4-3.1 65.15-3.33 66.9-3.55 68.15-3.8L68.15-3.8Q69.6-4.1 70.75-4.5L70.75-4.5 71.6-0.95Q70.25-0.5 68.6-0.15L68.6-0.15Q67.2 0.15 65.35 0.4 63.5 0.65 61.3 0.65L61.3 0.65Q57.35 0.65 54.37-0.65 51.4-1.95 49.42-4.28 47.45-6.6 46.45-9.78 45.45-12.95 45.45-16.75L45.45-16.75Q45.45-21.1 46.65-24.43 47.85-27.75 49.95-30 52.05-32.25 54.95-33.4 57.85-34.55 61.3-34.55L61.3-34.55Q63.4-34.55 65.22-34.33 67.05-34.1 68.57-33.75 70.1-33.4 71.4-33L71.4-33ZM77.65 0L77.65-34.1 81.84-34.1 81.84-19.35 99.09-19.35 99.09-34.1 103.3-34.1 103.3 0 99.09 0 99.09-15.6 81.84-15.6 81.84 0 77.65 0ZM110.79-11L110.79-14.7 124.14-14.7 124.14-11 110.79-11ZM138.19 0L126.84-34.1 131.09-34.1 140.89-4 140.94-4 150.59-34.1 154.84-34.1 143.49 0 138.19 0ZM157.89-17.05L157.89-17.05Q157.89-21.9 159.41-25.25 160.94-28.6 163.31-30.65 165.69-32.7 168.61-33.63 171.54-34.55 174.34-34.55L174.34-34.55Q177.14-34.55 180.06-33.77 182.99-33 185.36-31.03 187.74-29.05 189.26-25.65 190.79-22.25 190.79-17L190.79-17Q190.79-12.1 189.26-8.75 187.74-5.4 185.36-3.3 182.99-1.2 180.06-0.28 177.14 0.65 174.34 0.65L174.34 0.65Q171.54 0.65 168.61-0.25 165.69-1.15 163.31-3.2 160.94-5.25 159.41-8.65 157.89-12.05 157.89-17.05ZM186.04-16.8L186.04-16.8Q186.04-23.55 182.91-27.05 179.79-30.55 174.54-30.55L174.54-30.55Q171.89-30.55 169.71-29.73 167.54-28.9 165.96-27.25 164.39-25.6 163.51-23.13 162.64-20.65 162.64-17.3L162.64-17.3Q162.64-10.55 165.76-6.95 168.89-3.35 174.14-3.35L174.14-3.35Q176.74-3.35 178.94-4.17 181.14-5 182.71-6.7 184.29-8.4 185.16-10.9 186.04-13.4 186.04-16.8ZM203.99 0L203.99-12.4 193.09-34.1 197.74-34.1 206.09-17.55 214.49-34.1 219.14-34.1 208.24-12.4 208.24 0 203.99 0ZM218.63 0L230.33-34.1 235.53-34.1 247.23 0 242.88 0 239.88-9.1 226.03-9.1 222.98 0 218.63 0ZM227.33-13.1L238.53-13.1 233.03-30.1 232.88-30.1 227.33-13.1ZM278.78-33.15L278.08-29.3Q275.88-29.75 273.41-30.15 270.93-30.55 267.68-30.65L267.68-30.65Q264.38-30.6 261.98-29.65 259.58-28.7 258.06-26.93 256.53-25.15 255.78-22.7 255.03-20.25 255.03-17.3L255.03-17.3Q255.03-13.5 256-10.8 256.98-8.1 258.71-6.38 260.43-4.65 262.73-3.85 265.03-3.05 267.68-3.05L267.68-3.05Q269.38-3.05 270.75-3.25 272.13-3.45 273.16-3.73 274.18-4 275.03-4.35L275.03-4.35 275.03-13.5 268.78-13.5 268.78-17.25 279.28-17.25 279.28-2.3Q277.53-1.15 274.46-0.23 271.38 0.7 267.68 0.65L267.68 0.65Q264.28 0.65 261.16-0.15 258.03-0.95 255.61-2.98 253.18-5 251.73-8.5 250.28-12 250.28-17.35L250.28-17.35Q250.28-21.7 251.63-24.93 252.98-28.15 255.31-30.28 257.63-32.4 260.71-33.48 263.78-34.55 267.23-34.55L267.23-34.55Q269.48-34.55 271.58-34.33 273.68-34.1 275.43-33.83 277.18-33.55 278.78-33.15L278.78-33.15ZM286.73 0L286.73-34.1 307.63-34.1 307.63-30.25 290.93-30.25 290.93-19.35 306.43-19.35 306.43-15.6 290.93-15.6 290.93-3.85 308.13-3.85 308.13 0 286.73 0Z" opacity="1" transform="matrix(1,0,0,1,0,0)" fill="#7f3187" class="wordmark-text-0" data-fill-palette-color="primary" id="text-0"></path></svg></g></svg></g><g transform="matrix(1,0,0,1,163.310208,56.49713013494419)"><svg viewBox="0 0 232.209792 27.453778125992585" height="27.453778125992585" width="232.209792"><g transform="matrix(1,0,0,1,0,0)"><svg width="232.209792" viewBox="2.2 -32.7 283.33 33.5" height="27.453778125992585" data-palette-color="#7f3187"><path d="M3.85 0.5L3.85 0.5Q2.9 0.5 2.55-0.05 2.2-0.6 2.2-1.25L2.2-1.25Q2.2-4.35 2.83-8.35 3.45-12.35 4.35-16.3L4.35-16.3Q5.15-19.65 6.13-22.55 7.1-25.45 7.85-27.3L7.85-27.3Q8.95-29.9 10.38-31.28 11.8-32.65 13.7-32.65L13.7-32.65Q15.1-32.65 16.2-31.73 17.3-30.8 17.5-28.4L17.5-28.4Q17.8-25.5 18.2-22.55 18.6-19.6 19.1-17.18 19.6-14.75 20.15-13.45L20.15-13.45Q20.6-12.3 21.45-12.3L21.45-12.3Q22.4-12.3 23.1-13.5L23.1-13.5Q23.75-14.6 24.5-16.5 25.25-18.4 25.98-20.53 26.7-22.65 27.25-24.4L27.25-24.4Q27.9-26.3 28.73-28.23 29.55-30.15 30.85-31.43 32.15-32.7 34.1-32.7L34.1-32.7Q35.9-32.7 36.68-31.48 37.45-30.25 37.45-27.6L37.45-27.6Q37.45-25.55 37.3-23.3L37.3-23.3Q37.25-22 37.18-20.63 37.1-19.25 37.1-17.8L37.1-17.8Q37.1-15.55 37.33-13.05 37.55-10.55 38.23-8.35 38.9-6.15 40.25-4.65L40.25-4.65Q40.65-4.3 40.98-3.85 41.3-3.4 41.3-2.85L41.3-2.85Q41.3-1.6 39.98-0.58 38.65 0.45 36.95 0.45L36.95 0.45Q35.4 0.45 34.65-0.55 33.9-1.55 33.45-3.25L33.45-3.25Q32.95-5.35 32.75-7.75 32.55-10.15 32.55-12.4L32.55-12.4Q32.55-16 32.83-19.03 33.1-22.05 33.1-23.5L33.1-23.5Q33.1-24.3 32.95-24.68 32.8-25.05 32.2-25.05L32.2-25.05Q31.5-25.05 31.03-24.43 30.55-23.8 30.25-22.7L30.25-22.7Q29.6-20.6 28.8-18.2 28-15.8 27.13-13.5 26.25-11.2 25.25-9.4L25.25-9.4Q24.1-7.3 22.78-6.58 21.45-5.85 20.1-5.85L20.1-5.85Q18-5.85 16.93-7.18 15.85-8.5 15.35-10.1L15.35-10.1Q14.7-12.25 14.15-15.73 13.6-19.2 13.35-23.55L13.35-23.55Q13.25-25.4 12.15-25.4L12.15-25.4Q10.95-25.4 10.25-23.6L10.25-23.6Q9.65-21.8 9.1-19.38 8.55-16.95 8.22-14.33 7.9-11.7 7.9-9.15L7.9-9.15Q7.9-7 8.08-5.4 8.25-3.8 8.25-2.4L8.25-2.4Q8.25-1.4 7.48-0.75 6.7-0.1 5.65 0.2 4.6 0.5 3.85 0.5ZM56.2 0.65L56.2 0.65Q52.65 0.65 49.97-0.95 47.3-2.55 45.85-5.5 44.4-8.45 44.4-12.5L44.4-12.5Q44.4-16.35 45.65-19.9 46.9-23.45 49.25-26.25 51.6-29.05 54.9-30.7 58.2-32.35 62.35-32.35L62.35-32.35Q65.45-32.35 67.45-31.4 69.45-30.45 69.45-28.6L69.45-28.6Q69.45-27.7 68.97-26.83 68.5-25.95 67.75-25.35 67-24.75 66.2-24.75L66.2-24.75Q65.7-24.75 65.4-25L65.4-25Q64.05-25.9 62.75-26.33 61.45-26.75 59.75-26.75L59.75-26.75Q56.2-26.75 53.75-25.13 51.3-23.5 50.02-20.85 48.75-18.2 48.75-15.1L48.75-15.1Q48.75-12.1 49.9-9.8 51.05-7.5 53.1-6.2 55.15-4.9 57.9-4.9L57.9-4.9Q60.1-4.9 62.17-5.78 64.25-6.65 65.85-8.2L65.85-8.2Q66.55-8.85 67.25-8.85L67.25-8.85Q67.85-8.85 68.1-8.35 68.35-7.85 68.35-7.35L68.35-7.35Q68.35-6.5 67.85-5.43 67.35-4.35 66.3-3.3L66.3-3.3Q64.45-1.45 61.75-0.4 59.05 0.65 56.2 0.65ZM74.59 0.55L74.59 0.55Q72.65 0.55 72.65-0.85L72.65-0.85Q72.65-1.25 72.8-1.9L72.8-1.9Q73.84-7.15 74.3-12.55L74.3-12.55Q73.55-12.35 73.09-12.35L73.09-12.35Q72.59-12.35 72.59-13.25L72.59-13.25Q72.59-14.45 73.2-15.95 73.8-17.45 74.59-18.15L74.59-18.15Q74.59-20.8 74.47-22.58 74.34-24.35 74-25.7 73.65-27.05 72.9-28.3L72.9-28.3Q72.45-29 72.45-29.35L72.45-29.35Q72.45-30 73.12-30.63 73.8-31.25 74.77-31.7 75.75-32.15 76.59-32.15L76.59-32.15Q78.2-32.15 78.72-30.73 79.25-29.3 79.25-27L79.25-27Q79.2-25.9 79.05-23.85 78.9-21.8 78.59-18.8L78.59-18.8Q81.75-19 84.75-19.1 87.75-19.2 90.5-19.2L90.5-19.2 94.2-19.2 94.2-20.6Q94.2-24.95 93.05-28.25L93.05-28.25Q92.7-29.1 92.7-29.45L92.7-29.45Q92.7-30.45 93.97-31.3 95.25-32.15 96.65-32.15L96.65-32.15Q98.2-32.15 98.72-31.03 99.25-29.9 99.25-27.85L99.25-27.85Q99.25-26.5 99-24.2 98.75-21.9 98.3-18.6L98.3-18.6Q97.84-15.1 97.59-12.83 97.34-10.55 97.34-8.8L97.34-8.8Q97.34-5.5 99.05-3.9L99.05-3.9Q99.7-3.15 99.7-2.4L99.7-2.4Q99.7-1.25 98.34-0.38 97 0.5 95.09 0.5L95.09 0.5Q93.9 0.5 93.2-0.15 92.5-0.8 92.5-2.95L92.5-2.95Q92.5-3.7 92.65-5.2 92.8-6.7 93.15-9L93.15-9Q93.34-10.45 93.52-11.8 93.7-13.15 93.8-14.35L93.8-14.35Q93.45-13.9 93.12-13.65 92.8-13.4 92.25-13.45L92.25-13.45Q90.45-13.55 88.67-13.63 86.9-13.7 85.15-13.7L85.15-13.7Q81.5-13.7 78.2-13.25L78.2-13.25Q78.15-12.9 78.12-12.08 78.09-11.25 78.09-10.7L78.09-10.7Q78.09-8.55 78.3-6.25 78.5-3.95 78.7-2.15L78.7-2.15Q78.84-0.9 77.5-0.18 76.15 0.55 74.59 0.55ZM104.04-7.65L104.04-7.65Q103.29-7.65 103.29-9.1L103.29-9.1Q103.29-9.95 103.47-10.88 103.64-11.8 104.04-12.4L104.04-12.4Q104.14-12.55 104.39-12.73 104.64-12.9 105.09-12.9L105.09-12.9 115.89-12.9Q116.49-12.9 116.67-12.63 116.84-12.35 116.84-11.8L116.84-11.8Q116.84-11.25 116.69-10.4 116.54-9.55 116.19-8.9 115.84-8.25 115.24-8.25L115.24-8.25 110.79-8.25Q109.04-8.25 107.59-8.1 106.14-7.95 105.19-7.8L105.19-7.8Q104.44-7.65 104.04-7.65ZM127.89 0.8L127.89 0.8Q126.19 0.8 125.27-0.33 124.34-1.45 124.19-4.25L124.19-4.25Q124.09-7.2 123.72-10.13 123.34-13.05 122.69-15.6L122.69-15.6Q121.84-19.3 120.42-22.43 118.99-25.55 116.49-27.55L116.49-27.55Q116.09-27.9 115.84-28.23 115.59-28.55 115.59-29.05L115.59-29.05Q115.59-30.15 116.72-31.15 117.84-32.15 119.34-32.15L119.34-32.15Q121.09-32.15 122.34-30.7 123.59-29.25 124.59-26.65L124.59-26.65Q126.29-22.55 127.06-17.48 127.84-12.4 127.94-7.7L127.94-7.7Q127.99-6.3 128.34-5.83 128.69-5.35 129.54-5.35L129.54-5.35Q131.34-5.35 133.06-6.75 134.79-8.15 136.22-10.55 137.64-12.95 138.49-16 139.34-19.05 139.34-22.4L139.34-22.4Q139.34-24.45 139.06-25.73 138.79-27 138.44-27.75L138.44-27.75Q137.99-28.75 137.99-29.35L137.99-29.35Q137.99-30.1 138.69-30.75 139.39-31.4 140.31-31.83 141.24-32.25 141.99-32.25L141.99-32.25Q142.99-32.25 143.44-31.53 143.89-30.8 144.04-29.7 144.19-28.6 144.19-27.45L144.19-27.45Q144.19-24 143.39-20.15 142.59-16.3 141.12-12.58 139.64-8.85 137.62-5.83 135.59-2.8 133.14-1 130.69 0.8 127.89 0.8ZM159.99 0.65L159.99 0.65Q154.84 0.65 151.76-2.38 148.69-5.4 148.69-11.3L148.69-11.3Q148.69-13.95 149.41-16.8 150.14-19.65 151.84-22.45L151.84-22.45Q150.89-21.6 150.04-21.6L150.04-21.6Q148.59-21.6 148.59-23.9L148.59-23.9Q148.59-25.55 149.29-26.55 149.99-27.55 150.64-28.15L150.64-28.15Q151.74-29.1 153.44-30.08 155.14-31.05 157.44-31.7 159.74-32.35 162.59-32.35L162.59-32.35Q169.29-32.35 172.66-28.58 176.04-24.8 176.04-18.1L176.04-18.1Q176.04-14.15 174.89-10.75 173.74-7.35 171.61-4.8 169.49-2.25 166.54-0.8 163.59 0.65 159.99 0.65ZM161.74-4.95L161.74-4.95Q164.24-4.95 166.66-6.1 169.09-7.25 170.66-9.78 172.24-12.3 172.24-16.35L172.24-16.35Q172.24-20.15 170.79-22.43 169.34-24.7 167.11-25.73 164.89-26.75 162.44-26.75L162.44-26.75Q160.59-26.75 159.11-26.28 157.64-25.8 156.49-25.25L156.49-25.25Q155.19-23.25 154.04-20.38 152.89-17.5 152.89-14.3L152.89-14.3Q152.89-11.1 154.14-9.03 155.39-6.95 157.41-5.95 159.44-4.95 161.74-4.95ZM187.79 0.2L187.79 0.2Q186.24 0.2 185.44-0.48 184.64-1.15 184.64-2.85L184.64-2.85Q184.64-4.15 185.06-6.48 185.49-8.8 186.29-11.65L186.29-11.65Q185.89-13.65 185.31-15.83 184.74-18 183.99-19.95L183.99-19.95Q183.04-22.6 181.69-24.4 180.34-26.2 178.49-26.2L178.49-26.2Q178.14-26.2 177.81-26.15 177.49-26.1 177.24-26L177.24-26Q176.74-25.9 176.21-26.7 175.69-27.5 175.69-28.6L175.69-28.6Q175.69-30 176.66-31.08 177.64-32.15 179.34-32.15L179.34-32.15Q181.44-32.15 183.21-30.78 184.99-29.4 186.36-26.15 187.74-22.9 188.59-17.3L188.59-17.3Q189.49-19.6 190.76-22.18 192.04-24.75 193.64-27.03 195.24-29.3 197.09-30.73 198.94-32.15 200.99-32.15L200.99-32.15Q202.34-32.15 203.06-31.5 203.79-30.85 203.79-29.7L203.79-29.7Q203.79-28.9 203.46-28 203.14-27.1 202.59-26.45 202.04-25.8 201.44-25.8L201.44-25.8Q201.24-25.8 201.01-25.83 200.79-25.85 200.54-25.95L200.54-25.95Q200.04-26.2 199.39-26.2L199.39-26.2Q197.79-26.2 195.89-24 193.99-21.8 192.14-17.2L192.14-17.2Q190.24-12.35 190.24-7.8L190.24-7.8Q190.24-6.75 190.51-5.73 190.79-4.7 191.54-3.85L191.54-3.85Q192.04-3.1 192.04-2.45L192.04-2.45Q192.04-1.35 190.84-0.58 189.64 0.2 187.79 0.2ZM225.68 0.55L225.68 0.55Q224.13 0.55 223.06-0.78 221.98-2.1 220.98-5.15L220.98-5.15Q220.48-6.65 220.16-8.08 219.83-9.5 219.68-10.85L219.68-10.85Q219.03-9.85 218.51-9.53 217.98-9.2 216.98-9.2L216.98-9.2Q214.53-9.2 211.78-9.28 209.03-9.35 206.88-9.4L206.88-9.4Q206.78-8.5 206.71-7.58 206.63-6.65 206.63-5.75L206.63-5.75Q206.63-4.95 206.71-4.15 206.78-3.35 206.83-2.6L206.83-2.6Q206.98-1.2 205.73-0.35 204.48 0.5 202.63 0.5L202.63 0.5Q201.03 0.5 201.03-0.9L201.03-0.9Q201.03-1.75 201.48-3.45L201.48-3.45Q201.73-4.6 201.88-5.43 202.03-6.25 202.03-6.75L202.03-6.75Q202.03-8.15 201.18-8.65L201.18-8.65Q200.48-9.05 200.48-9.7L200.48-9.7Q200.48-10.3 200.76-11.15 201.03-12 201.48-12.73 201.93-13.45 202.33-13.75L202.33-13.75Q202.68-13.95 203.18-14.1 203.68-14.25 204.43-14.3L204.43-14.3Q206.38-19.9 208.81-23.98 211.23-28.05 213.98-30.28 216.73-32.5 219.58-32.5L219.58-32.5Q221.33-32.5 222.13-31.33 222.93-30.15 222.93-27.4L222.93-27.4 222.93-25.15Q222.93-20.1 223.68-15.85 224.43-11.6 225.53-8.95L225.53-8.95Q226.63-6.15 228.58-4.35L228.58-4.35Q229.18-3.85 229.38-3.48 229.58-3.1 229.58-2.7L229.58-2.7Q229.58-1.95 229.01-1.2 228.43-0.45 227.53 0.05 226.63 0.55 225.68 0.55ZM208.38-14.6L208.38-14.6Q210.83-14.7 212.68-14.78 214.53-14.85 215.78-14.85L215.78-14.85 219.28-14.85Q219.18-16.25 219.11-17.8 219.03-19.35 219.03-21.05L219.03-21.05 219.03-23.95Q219.03-25.4 218.71-25.88 218.38-26.35 217.48-26.35L217.48-26.35Q215.03-26.35 212.58-23.15 210.13-19.95 208.38-14.6ZM244.33 0.65L244.33 0.65Q240.88 0.65 238.13-0.9 235.38-2.45 233.78-5.4 232.18-8.35 232.18-12.55L232.18-12.55Q232.18-16.35 233.46-19.88 234.73-23.4 237.08-26.23 239.43-29.05 242.78-30.7 246.13-32.35 250.23-32.35L250.23-32.35Q253.23-32.35 255.23-31.4 257.23-30.45 257.23-28.6L257.23-28.6Q257.23-27.7 256.75-26.83 256.28-25.95 255.53-25.35 254.78-24.75 253.98-24.75L253.98-24.75Q253.48-24.75 253.18-25L253.18-25Q250.58-26.75 247.28-26.75L247.28-26.75Q243.78-26.75 241.38-25.13 238.98-23.5 237.75-20.85 236.53-18.2 236.53-15.1L236.53-15.1Q236.53-10.45 239.16-7.7 241.78-4.95 246.18-4.95L246.18-4.95Q248.08-4.95 249.73-5.5 251.38-6.05 252.43-7.1 253.48-8.15 253.48-9.65L253.48-9.65Q253.48-11.15 252.58-11.95 251.68-12.75 250.23-13.13 248.78-13.5 247.08-13.6L247.08-13.6Q245.88-13.7 245.31-13.9 244.73-14.1 244.73-15.1L244.73-15.1Q244.73-16.3 245.48-17.1 246.23-17.9 247.33-18L247.33-18Q248.83-18.15 250.93-18.23 253.03-18.3 255.31-18.32 257.58-18.35 259.58-18.35L259.58-18.35Q260.23-18.35 260.58-18.13 260.93-17.9 260.93-17.2L260.93-17.2Q260.93-16.35 260.56-15.35 260.18-14.35 259.53-13.65 258.88-12.95 258.03-12.95L258.03-12.95 257.23-12.95Q257.38-12.45 257.5-11.83 257.63-11.2 257.63-10.4L257.63-10.4Q257.63-8.2 256.58-6.23 255.53-4.25 253.68-2.7 251.83-1.15 249.43-0.25 247.03 0.65 244.33 0.65ZM274.18 0.65L274.18 0.65Q269.43 0.65 267.15-0.88 264.88-2.4 264.88-6.6L264.88-6.6Q264.88-7.45 265-8.65 265.13-9.85 265.38-11.55L265.38-11.55Q265.78-14 265.98-15.93 266.18-17.85 266.18-20.15L266.18-20.15Q266.18-21.65 266.1-23.05 266.03-24.45 265.83-25.7L265.83-25.7Q265.08-25.55 264.83-25.55L264.83-25.55Q264.43-25.55 264.28-25.73 264.13-25.9 264.13-26.4L264.13-26.4Q264.13-27.45 264.38-28.48 264.63-29.5 265.08-30.15L265.08-30.15Q265.93-31.35 267.68-31.55L267.68-31.55Q269.03-31.7 271-31.85 272.98-32 275.05-32.08 277.13-32.15 278.78-32.15L278.78-32.15Q283.38-32.15 284.23-31.95L284.23-31.95Q285.53-31.75 285.53-30.55L285.53-30.55Q285.53-29.05 284.48-27.8L284.48-27.8Q283.93-27.05 283.38-26.73 282.83-26.4 281.83-26.45L281.83-26.45Q279.63-26.6 277.98-26.65 276.33-26.7 275.68-26.7L275.68-26.7Q274.53-26.7 273.3-26.65 272.08-26.6 270.83-26.5L270.83-26.5Q270.83-24.75 270.68-22.75 270.53-20.75 270.28-18.55L270.28-18.55Q272.58-18.7 275.48-18.78 278.38-18.85 280.63-18.85L280.63-18.85Q281.63-18.85 282-18.65 282.38-18.45 282.38-17.6L282.38-17.6Q282.38-16.8 281.95-15.83 281.53-14.85 280.83-14.15L280.83-14.15Q280.53-13.85 280.18-13.68 279.83-13.5 279.23-13.55L279.23-13.55Q277.08-13.65 274.35-13.7 271.63-13.75 269.58-13.7L269.58-13.7Q269.38-12.55 269.28-11.6 269.18-10.65 269.18-9.9L269.18-9.9Q269.18-7.15 270.58-6.05 271.98-4.95 275.18-4.95L275.18-4.95Q277.13-4.95 278.95-5.3 280.78-5.65 282.68-6.6L282.68-6.6Q283.38-7 283.73-7L283.73-7Q284.28-7 284.8-6.23 285.33-5.45 285.33-4.55L285.33-4.55Q285.33-3.45 284.5-2.48 283.68-1.5 282.33-0.8L282.33-0.8Q280.78-0.1 278.63 0.28 276.48 0.65 274.18 0.65Z" opacity="1" transform="matrix(1,0,0,1,0,0)" fill="#7f3187" class="slogan-text-1" data-fill-palette-color="secondary" id="text-1"></path></svg></g></svg></g></svg></g></svg></g><g transform="matrix(1,0,0,1,406.31028837525935,0)"><svg viewBox="0 0 109.05894590361774 109.05894590361775" height="109.05894590361775" width="109.05894590361774"><g><svg></svg></g><g id="icon-0"><svg viewBox="0 0 109.05894590361774 109.05894590361775" height="109.05894590361775" width="109.05894590361774"><g><path transform="scale(1.09059,1.09059)" d="M30 100c-16.569 0-30-13.431-30-30v-40c0-16.569 13.431-30 30-30h40c16.569 0 30 13.431 30 30v40c0 16.569-13.431 30-30 30z" fill="#7f3187" fill-rule="nonzero" stroke="none" stroke-width="1" stroke-linecap="butt" stroke-linejoin="miter" stroke-miterlimit="10" stroke-dasharray="" stroke-dashoffset="0" font-family="none" font-weight="none" font-size="none" text-anchor="none" style="mix-blend-mode: normal" data-fill-palette-color="accent"></path></g><g transform="matrix(1,0,0,1,21.811789180723544,39.80651525482048)"><svg viewBox="0 0 65.43536754217065 29.445915393976794" height="29.445915393976794" width="65.43536754217065"><g><svg xmlns="http://www.w3.org/2000/svg" xmlns:xlink="http://www.w3.org/1999/xlink" version="1.1" x="0" y="0" viewBox="5 29.7 90 40.5" enable-background="new 0 0 100 100" xml:space="preserve" height="29.445915393976794" width="65.43536754217065" class="icon-dxe-0" data-fill-palette-color="quaternary" id="dxe-0"><path d="M95 50C95 49.8 94.9 49.6 94.7 49.6L91.4 48.4C90.7 48.2 90.4 48.3 90.4 48.3H81.6C80.7 48.3 80.6 48.1 80.6 48.1L77.4 43H79.9C80 43 80.2 42.9 80.2 42.7V41.9C80.2 41.8 80.1 41.6 79.9 41.6H76.5L73.8 37.5H76.7C76.8 37.5 77 37.4 77 37.2V36.4C77 36.3 76.9 36.1 76.7 36.1H72.9L68.9 30C68.7 29.7 68.3 29.7 68.3 29.7H66.8C66.4 29.7 66.6 30.1 66.6 30.1L71.1 44C71.4 44.9 71.5 46 71.5 46V48.4H68.5S62.7 48.4 58.6 49.3L53.6 43.4S53.4 43.2 53.1 43.2H51.9L54.3 50 51.9 56.8H53C53.4 56.8 53.5 56.6 53.5 56.6L58.5 50.7C62.6 51.6 68.4 51.6 68.4 51.6H71.4V54S71.4 55.1 71 56L66.5 69.8S66.3 70.2 66.7 70.2H68.2S68.5 70.2 68.8 69.9L72.8 63.8H76.6C76.7 63.8 76.9 63.7 76.9 63.5V62.7C76.9 62.6 76.8 62.4 76.6 62.4H73.7L76.4 58.3H79.8C79.9 58.3 80.1 58.2 80.1 58V57.2C80.1 57.1 80 56.9 79.8 56.9H77.3L80.7 51.8S80.8 51.6 81.7 51.6H90.4S90.7 51.7 91.4 51.5L94.7 50.3C94.9 50.4 95 50.2 95 50" fill="#ffffff" data-fill-palette-color="quaternary"></path><path d="M14 50C14 47.5 12 45.5 9.5 45.5S5 47.5 5 50 7 54.5 9.5 54.5 14 52.5 14 50M7.4 50C7.4 48.8 8.4 47.9 9.5 47.9 10.7 47.9 11.6 48.9 11.6 50 11.6 51.2 10.6 52.1 9.5 52.1S7.4 51.2 7.4 50" fill="#ffffff" data-fill-palette-color="quaternary"></path><path d="M47.8 50.7H45.1V49.3H47.8zM42.4 50.7H39.7V49.3H42.4zM37 50.7H34.3V49.3H37zM31.6 50.7H28.9V49.3H31.6zM26.2 50.7H23.5V49.3H26.2zM20.8 50.7H18.1V49.3H20.8z" fill="#ffffff" data-fill-palette-color="quaternary"></path></svg></g></svg></g></svg></g></svg></g></svg></g><defs></defs></svg><rect width="395.52" height="83.69726288406584" fill="none" stroke="none" visibility="hidden"></rect></g></svg></g></svg>